<svg xmlns="http://www.w3.org/2000/svg" width="1024" height="1024" viewBox="0 0 1024 1024" version="1.1"><path d="" stroke="none" fill="#080404" fill-rule="evenodd"/><path d="M 424.500 62.033 C 399.431 67.303, 371.706 82.546, 355.957 99.716 C 335.498 122.023, 322.995 149.928, 321.315 177.033 L 320.724 186.566 329.612 192.999 C 334.500 196.537, 343.225 204.177, 349 209.977 C 372.915 233.997, 386.828 260.872, 392.798 294.580 L 394.500 304.190 400.500 306.721 C 413.219 312.086, 428.329 315.170, 444.675 315.737 C 467.624 316.533, 485.844 312.629, 505.639 302.676 C 559.597 275.545, 587.368 215.014, 572.589 156.752 C 560.158 107.747, 519.953 69.977, 471.164 61.469 C 459.061 59.359, 435.888 59.639, 424.500 62.033 M 221.906 192.001 C 182.327 196.570, 146.312 220.480, 125.504 255.998 C 115.154 273.667, 110.060 291.930, 109.287 314.140 C 108.255 343.795, 114.793 367.480, 130.542 391.136 C 154.174 426.634, 194.182 448.002, 237 447.995 C 307.644 447.984, 365.309 390.896, 365.279 321 C 365.267 293.461, 358.350 270.232, 343.533 247.976 C 325.039 220.196, 294.268 199.691, 261.814 193.521 C 251.562 191.571, 232.059 190.829, 221.906 192.001 M 393.632 332.629 C 390.962 367.367, 375.875 401.499, 351.602 427.716 C 348.521 431.044, 346 433.995, 346 434.272 C 346 434.550, 350.387 436.276, 355.750 438.108 C 366.744 441.864, 383.809 450.286, 395 457.479 C 436.875 484.394, 467.242 526.498, 478.514 573.273 C 482.976 591.787, 483.962 602.452, 483.982 632.404 L 484 660.308 497.750 659.644 C 505.313 659.279, 513.862 658.697, 516.750 658.351 L 522 657.721 522 710.774 L 522 763.827 515.250 766.001 C 507.434 768.518, 495.234 774.662, 488.389 779.529 C 475.082 788.990, 460.726 806.509, 454.004 821.491 C 444.722 842.179, 442.920 867.287, 449.087 890 C 455.518 913.685, 473.654 937.346, 495.224 950.193 C 511.915 960.133, 526.377 963.986, 547 963.986 C 563.075 963.986, 571.902 962.402, 585.151 957.139 C 620.260 943.192, 645.896 908.921, 648.847 871.986 C 649.764 860.511, 648.695 847.196, 646.018 836.730 C 643.373 826.392, 635.693 810.488, 629.248 802 C 617.453 786.469, 599.604 773.243, 581.889 766.906 L 573 763.726 573 706.934 L 573 650.142 578.750 649.002 C 601.880 644.415, 637.839 633.030, 655.250 624.781 L 666 619.687 665.997 552.594 C 665.993 483.185, 665.434 469.780, 661.845 453.092 C 649.008 393.391, 601.801 344.279, 543 329.452 C 524.356 324.751, 524.426 324.755, 457.903 324.302 L 394.305 323.869 393.632 332.629 M 737.776 404.060 L 674.052 455.180 700.276 476.268 C 760.263 524.507, 800.997 557, 801.483 557 C 801.767 557, 802 539.869, 802 518.931 L 802 480.863 830.750 481.181 C 857.925 481.483, 859.720 481.618, 863.513 483.649 C 868.988 486.582, 872.891 490.639, 875.397 496 C 877.496 500.492, 877.500 500.724, 877.771 632.106 L 878.043 763.711 869.132 766.898 C 843.496 776.069, 819.881 798.207, 809.553 822.752 C 795.349 856.507, 800.040 894.696, 821.962 923.789 C 836.545 943.142, 855.706 955.661, 880.410 961.978 C 891.396 964.787, 914.017 964.821, 925.589 962.047 C 957.200 954.467, 981.852 934.606, 995.528 905.696 C 1003.153 889.579, 1004.500 883.169, 1004.500 863 C 1004.500 847.890, 1004.187 844.339, 1002.206 837 C 993.627 805.208, 968.543 777.871, 937.889 766.906 L 929 763.726 928.983 630.613 C 928.964 486.910, 929.125 491.540, 923.670 478.035 C 919.610 467.983, 914.934 461.012, 906.500 452.440 C 893.374 439.098, 879.100 432.179, 860.243 430.018 C 855.435 429.467, 840.368 429.013, 826.762 429.008 L 802.024 429 801.762 390.970 L 801.500 352.940 737.776 404.060 M 158.500 457.628 C 122.462 463.239, 90.217 479.704, 65.401 505.165 C 38.026 533.252, 22.654 566.330, 18.999 605.019 C 18.304 612.378, 18.019 641.411, 18.207 685.882 L 18.500 755.264 31.500 759.166 C 145.256 793.313, 252.624 801.811, 350.500 784.415 C 386.728 777.976, 428.561 765.054, 447.542 754.439 L 454 750.828 453.985 687.164 C 453.969 619.641, 453.240 600.899, 450.011 585.052 C 442.604 548.709, 421.314 514.086, 392.461 491.466 C 368.460 472.649, 343.852 462.094, 313.220 457.477 C 299.450 455.401, 172.003 455.526, 158.500 457.628 M 536.063 813.555 C 532.523 814.323, 527.123 816.192, 524.063 817.710 C 517.263 821.083, 506.437 831.691, 502.770 838.575 C 492.816 857.257, 495.972 881.171, 510.445 896.746 C 538.918 927.385, 589.709 912.186, 597.102 870.815 C 599.836 855.517, 594.316 838.099, 583.272 827.174 C 570.598 814.638, 553.635 809.744, 536.063 813.555 M 891.500 813.391 C 878.202 816.638, 864.463 827.233, 858.633 838.737 C 841.571 872.407, 865.438 912.596, 902.701 912.942 C 911.661 913.026, 918.449 911.321, 927.253 906.776 C 945.720 897.243, 956.232 876.519, 953.189 855.643 C 948.832 825.750, 920.462 806.319, 891.500 813.391" stroke="none" fill="#040404" fill-rule="evenodd"/></svg>